<?xml version="1.0" encoding="UTF-8"?>
<svg id="ARTBOARD_6_-_ICON__x28_Alpha_x29_" xmlns="http://www.w3.org/2000/svg" version="1.1" viewBox="0 0 792 792">
  <!-- Generator: Adobe Illustrator 30.2.1, SVG Export Plug-In . SVG Version: 2.1.1 Build 1)  -->
  <defs>
    <style>
      .st0 {
        fill: #fff;
      }
    </style>
  </defs>
  <path class="st0" d="M199.66,490.73h0c4.39,0,7.95,3.56,7.95,7.95v51.38s-15.9,16.27-15.9,16.27v-67.65c0-4.39,3.56-7.95,7.95-7.95Z"/>
  <path class="st0" d="M601.81,141.39l-53.54.6h-43.32c-2.45,0-4.84.21-7.18.6-12.23.49-23.85,5.55-32.53,14.23l-171.11,171.11-33.54,33.54c-14.42,14.42-22.47,34.02-22.34,54.41l.72,117.73-92.87,92.87c-5.51,5.51-5.51,14.43,0,19.94s14.43,5.51,19.94,0l47.79-47.79h79.97c4.39,0,7.95-3.56,7.95-7.95s-3.56-7.95-7.95-7.95h-64.07l29.19-29.19,117.73.72c20.4.12,39.99-7.92,54.42-22.34l34.39-34.39,170.25-170.25c9.01-9.01,14.14-21.19,14.28-33.94l1.14-102.64c.31-27.36-21.95-49.61-49.31-49.31ZM508.17,224.93l9.99-2.33c15.72-3.67,28-15.95,31.67-31.67l2.33-9.99c1.72-7.36,12.2-7.36,13.92,0l2.33,9.99c3.67,15.72,15.95,28,31.67,31.67l9.99,2.33c7.36,1.72,7.36,12.2,0,13.92l-9.99,2.33c-15.72,3.67-28,15.95-31.67,31.67l-2.33,9.99c-1.72,7.36-12.2,7.36-13.92,0l-2.33-9.99c-3.67-15.72-15.95-28-31.67-31.67l-9.99-2.33c-7.36-1.72-7.36-12.2,0-13.92ZM547.5,385.83l-4.89,4.89h-77.58c-4.39,0-7.95,3.56-7.95,7.95s3.56,7.95,7.95,7.95h61.7l-33.62,33.65-28.81,28.82h-79.04c-4.39,0-7.95,3.56-7.95,7.95s3.56,7.95,7.95,7.95h63.14l-41.63,41.63c-3.96,3.96-9.33,6.18-14.93,6.18h-110.29c-3.21,0-6.25-.7-8.99-1.94l134.01-134.01c3.12-3.12,3.12-8.19,0-11.31-3.12-3.12-8.19-3.12-11.31,0l-133.85,133.85c-1.09-2.6-1.69-5.45-1.69-8.44v-110.4c0-5.54,2.17-10.85,6.06-14.8l28.36-28.71h0s1.81-1.84,1.81-1.84l11.17-11.3v62.45c0,4.39,3.56,7.95,7.95,7.95s7.95-3.56,7.95-7.95v-78.54l29.21-29.57,30.01-30.04v63.03c0,4.39,3.56,7.95,7.95,7.95h0c4.39,0,7.95-3.56,7.95-7.95v-78.95l8.48-8.49,39.85-39.85,14.63-14.63v95.35c0,24.18,19.67,43.86,43.85,43.86h98.82c.13,0,.25,0,.38,0l-4.84,4.96-51.81,52.36Z"/>
</svg>